PathFileType	4	(X/Y/Z)	D:\TRACE\v60_Jaco2_6-2-23\BothDRS_Motion3_3-v60.trc
DataRate	CameraRate	NumFrames	NumMarkers	Units	OrigDataRate	OrigDataStartFrame	OrigNumFrames
100.00	100.00	      31	9	mm	100.00	4376	      7000
Frame#	Time	front left toe			Front right toe			aft left toe			aft right toe			Arm			FL body			FR body			AL Body			AR Body			
		X1	Y1	Z1	X2	Y2	Z2	X3	Y3	Z3	X4	Y4	Z4	X5	Y5	Z5	X6	Y6	Z6	X7	Y7	Z7	X8	Y8	Z8	X9	Y9	Z9	

4376	43.750	-108.13368	-0.83265	-142.31235	276.74582	107.11842	-152.23755	-94.47099	161.85590	458.61060	275.36823	49.66661	470.22018	154.46941	1054.68567	-507.97470	10.57925	484.84979	-325.66833	169.63905	476.62311	-324.34659	18.31045	627.30359	608.53857	168.81021	609.73315	609.27356	
4377	43.760	-108.10710	-0.80927	-142.24431	278.22049	116.31605	-155.56589	-93.54966	170.51311	455.23059	275.51880	49.60493	470.37759	155.06656	1054.77161	-508.59760	11.17930	484.91916	-326.60049	169.75848	476.56351	-325.57672	18.78482	626.76642	607.46735	169.98833	609.15790	608.37073	
4378	43.770	-108.13478	-0.77433	-142.17096	281.13046	123.32372	-158.69748	-91.98103	176.32201	452.62814	275.56018	49.24826	470.41336	155.62318	1055.05823	-508.99713	11.57054	484.70715	-327.24744	170.21104	476.23297	-326.78671	20.29233	626.17548	606.44763	171.37213	608.60565	608.06372	
4379	43.780	-108.13886	-0.67297	-142.02576	281.72314	125.51369	-161.46487	-90.53963	179.89478	450.82483	275.62662	48.69676	470.40817	156.69809	1055.51196	-509.68445	11.69731	484.78159	-328.41971	170.34106	476.21567	-327.59592	21.18006	625.67847	605.60858	171.99635	608.14471	606.24408	
4380	43.790	-108.15847	-0.47291	-141.96480	283.79993	125.45759	-163.80746	-88.68621	179.91977	449.38052	275.76410	47.98361	470.40323	157.75722	1055.97327	-510.16022	11.51177	485.19357	-330.03745	170.48524	476.22208	-329.07397	22.73910	625.48456	604.64441	173.62820	607.73102	605.18213	
4381	43.800	-108.04968	-0.29087	-141.83292	285.33621	122.22429	-166.26871	-86.78732	177.66310	448.07126	275.84665	47.72435	470.49167	158.71495	1056.28845	-511.00714	11.93522	485.36139	-330.65656	170.82904	476.21942	-330.11209	24.46768	625.45612	603.79840	174.94977	607.42285	604.23706	
4382	43.810	-107.83496	-0.08011	-141.73112	286.81732	117.22292	-168.58949	-85.31477	173.64543	446.69705	275.90839	47.45951	470.44949	159.29138	1056.46851	-511.65652	12.37717	485.64404	-331.44800	171.15816	476.46335	-331.24677	25.81825	625.19476	602.78485	176.32367	606.94788	602.96606	
4383	43.820	-107.76283	0.18972	-141.63641	287.70166	111.34138	-171.39748	-83.80440	168.46707	445.51819	276.14709	47.14151	470.36569	160.00262	1056.42639	-512.91101	12.72856	485.69675	-332.49295	171.48706	476.58981	-332.40726	27.41023	624.87341	601.89777	178.17383	606.49988	601.84790	
4384	43.830	-107.72767	0.35424	-141.54137	288.65994	104.19537	-174.43413	-81.54169	162.06252	444.40005	276.27216	46.38713	470.50629	160.26955	1056.39453	-513.81134	13.70157	485.77780	-333.16864	172.14207	476.46927	-333.71381	28.92729	624.59137	600.93311	180.19725	606.18311	601.47498	
4385	43.840	-107.57621	0.49878	-141.39737	290.52054	95.77731	-177.84297	-79.42916	155.17279	442.22223	276.18854	46.00658	470.62479	160.56566	1056.33374	-515.06848	13.93700	486.03925	-334.37393	172.69107	476.58939	-334.67270	30.48128	624.28662	599.82550	181.22267	605.87085	599.71973	
4386	43.850	-107.52804	0.72054	-141.33102	292.62024	87.03887	-181.31503	-76.63823	146.90355	440.00388	276.20078	45.45955	470.59732	161.13519	1056.15320	-516.19446	14.62319	485.90369	-335.52563	173.28719	476.30554	-336.03403	32.28314	624.18536	598.80878	182.82509	605.60406	598.40662	
4387	43.860	-107.55396	0.96952	-141.35095	294.53561	77.25043	-184.79625	-73.73171	137.37708	437.90506	276.39355	45.10427	470.58920	162.11266	1055.95972	-517.34521	15.00691	485.91464	-336.79773	173.74176	476.07626	-337.35034	33.86324	623.89124	597.52490	184.55344	604.96069	596.83331	
4388	43.870	-107.58740	1.11500	-141.23665	296.87137	66.69594	-187.78273	-70.47691	126.49007	435.31577	276.64426	44.62481	470.70425	162.87456	1055.78271	-518.73022	15.81078	485.54138	-337.94852	174.51598	475.68149	-338.70236	35.33641	623.64398	596.27423	186.07060	604.93567	595.76624	
4389	43.880	-107.54937	1.19172	-141.04112	299.06848	55.03632	-190.98909	-67.54821	115.22644	432.68735	276.90622	44.20523	470.74045	163.69824	1055.54773	-519.86017	16.28064	485.41376	-339.15628	175.14404	475.48630	-340.04099	37.25644	623.10364	595.05969	187.87160	604.01483	594.08136	
4390	43.890	-107.49521	1.33852	-140.94891	301.22391	44.13747	-193.86409	-64.29809	104.16625	430.29849	277.05118	43.54018	470.75946	164.30568	1055.19373	-521.13049	16.94394	485.29761	-340.53149	175.68001	475.30139	-341.81042	39.29009	622.36414	593.86682	189.54272	603.64252	592.72351	
4391	43.900	-107.47019	1.65238	-140.84633	303.03772	34.50543	-196.78883	-61.04833	93.86147	427.41595	277.27161	42.97495	470.91489	165.23528	1055.07312	-522.56018	18.01439	485.24002	-341.93094	176.60222	475.33908	-343.32123	41.40588	621.79706	592.44012	192.24150	602.75067	591.62378	
4392	43.910	-107.40304	1.98499	-140.88216	305.00244	24.80445	-199.65726	-58.47289	84.11141	424.80548	277.27979	42.32082	470.81927	165.82355	1055.32458	-524.04285	19.07662	485.38416	-343.28281	177.65237	475.38403	-345.18240	43.38159	620.97052	590.92566	193.71548	602.12085	589.43329	
4393	43.920	-107.51595	2.30458	-140.91225	306.35220	15.84237	-202.46237	-55.68895	74.20998	422.81000	277.43179	41.60462	470.91107	166.55923	1055.46716	-525.12854	19.75516	485.57181	-345.22754	178.84334	475.34668	-346.93002	45.67902	620.20575	589.21149	196.02951	601.21149	587.73334	
4394	43.930	-107.59090	2.54805	-140.84082	308.00449	8.01682	-204.66042	-53.52706	65.47659	420.99545	277.69031	41.19632	471.09518	167.45596	1056.01074	-526.46936	20.61522	485.43112	-347.01865	178.63416	475.82477	-348.80951	47.72279	619.24408	587.47180	198.61307	600.42084	586.38446	
4395	43.940	-107.66579	2.73226	-140.73047	308.89261	3.08776	-207.20271	-51.60088	58.08395	419.35718	277.72791	40.58831	470.91599	168.34750	1056.48694	-527.69366	21.64289	485.38272	-349.00888	179.74652	475.69376	-350.92227	49.95812	618.31335	585.68927	200.42332	599.54688	583.75970	
4396	43.950	-107.55790	3.04096	-140.47841	309.95605	1.98287	-207.89482	-49.46764	51.33175	417.21341	277.75735	39.76546	471.03647	169.43277	1056.93445	-529.21497	22.75253	485.56293	-350.97180	180.82469	475.92639	-352.96155	52.03082	617.39130	583.85236	202.74818	598.65936	581.63885	
4397	43.960	-107.35336	3.55315	-140.45650	310.33499	2.11861	-209.16206	-47.44830	44.93149	414.49167	277.57776	39.22609	471.14398	170.46196	1057.59875	-530.99445	23.75238	486.28906	-352.89798	181.65340	476.68353	-355.18317	54.26158	616.62415	582.05438	204.99307	598.03949	579.62122	
4398	43.970	-107.06104	4.18266	-140.72067	310.07657	1.21896	-207.86917	-46.11670	40.57682	411.75171	277.64883	38.96389	470.71069	171.07149	1058.07678	-532.69757	24.82706	487.24985	-354.68643	182.77711	477.82797	-357.14362	56.83597	616.09369	580.46143	206.92284	597.53632	577.60406	
4399	43.980	-106.66431	5.09923	-141.22470	309.72198	0.96614	-208.44887	-47.18984	36.96294	411.13196	277.31851	38.76729	470.33041	171.36232	1058.43884	-534.32532	25.92537	487.79996	-356.41995	183.86684	477.96484	-358.98151	59.30305	616.96100	578.74829	209.56963	597.78302	575.89276	
4400	43.990	-106.67995	6.33985	-140.75693	309.71228	0.89091	-208.20721	-47.98996	37.29236	412.88858	277.82181	39.07725	470.81598	171.33685	1059.52600	-535.46210	26.87282	487.73401	-357.18222	183.95934	478.20129	-360.64737	61.99562	618.86658	577.32275	211.90695	599.25708	574.00446	
4401	44.000	-104.39781	8.76849	-141.17902	309.60828	0.94375	-208.23427	-46.86568	37.84258	412.54468	275.93005	40.93212	470.77740	172.31505	1060.64063	-537.22528	27.29041	488.11063	-358.68890	184.97621	478.31815	-361.80774	64.01937	620.29639	576.01984	213.80147	600.99506	572.44708	
4402	44.010	-100.03009	13.11386	-139.75797	309.27069	1.32050	-208.25539	-46.01120	37.59570	412.93900	276.32288	49.49110	470.09723	173.10883	1061.48999	-539.82233	28.11048	489.10861	-359.87421	186.06937	479.01389	-363.58060	66.35419	620.88556	574.56818	216.11163	601.29852	570.79633	
4403	44.020	-94.57534	23.12327	-139.77913	309.05576	1.96795	-208.23306	-47.01593	37.37979	412.89066	275.98517	57.84956	469.67542	175.04256	1060.71216	-541.89374	28.69707	490.37930	-361.27798	186.22154	479.98413	-364.99139	68.55801	620.53076	573.18683	218.37485	600.54962	569.33643	
4404	44.030	-92.66645	33.83563	-141.79407	309.04092	2.01095	-208.21867	-47.19860	36.82567	412.89749	277.16031	66.89806	468.19357	176.40948	1059.75208	-543.18982	29.47367	491.06723	-362.83456	187.28920	480.59042	-366.99362	69.99996	620.08289	571.98651	220.20970	600.21588	567.91602	
4405	44.040	-91.89120	45.52505	-144.51424	308.95081	1.95309	-208.20837	-47.17854	36.44877	413.18399	279.62250	78.39889	462.70297	178.08870	1059.56775	-544.18048	30.46895	491.32959	-364.32626	188.33116	480.84143	-368.46741	71.17931	619.47131	570.62524	221.75000	599.60736	566.83466	
4406	44.050	-91.94398	58.51093	-148.98006	308.87976	1.91271	-208.19836	-47.27409	36.04591	413.34125	285.26901	89.69205	458.94336	179.11882	1060.30664	-544.57794	31.78313	491.07028	-365.38376	189.59549	480.83536	-369.67871	72.80319	618.60620	569.52026	222.74545	598.92987	565.52460	
